<?xml version="1.0" standalone="no"?>
<!DOCTYPE svg PUBLIC "-//W3C//DTD SVG 20010904//EN"
 "http://www.w3.org/TR/2001/REC-SVG-20010904/DTD/svg10.dtd">
<svg version="1.0" xmlns="http://www.w3.org/2000/svg"
 width="800.000000pt" height="194.000000pt" viewBox="0 0 800.000000 194.000000"
 preserveAspectRatio="xMidYMid meet">

<g transform="translate(0.000000,194.000000) scale(0.100000,-0.100000)"
fill="#000000" stroke="none">
<path d="M957 1653 c-3 -10 -31 -85 -62 -167 -45 -117 -54 -150 -43 -157 19
-12 22 -6 68 116 23 61 44 112 46 114 4 4 21 -32 74 -161 24 -58 35 -75 47
-71 20 8 16 22 -52 188 -63 154 -70 165 -78 138z"/>
<path d="M621 1332 c30 -32 65 -82 79 -110 27 -55 28 -56 49 -43 11 7 8 20
-19 68 -18 32 -39 66 -48 75 -14 17 -12 17 32 2 52 -18 143 -95 177 -150 11
-19 34 -67 49 -107 27 -69 28 -71 36 -42 23 90 97 204 162 248 20 14 59 35 86
47 l48 20 -21 -32 c-12 -18 -33 -54 -46 -80 -22 -41 -23 -47 -8 -52 18 -7 23
-2 59 68 14 27 48 71 76 98 49 48 49 48 21 48 -46 0 -142 -28 -197 -58 -65
-35 -123 -92 -163 -162 l-32 -55 -19 45 c-44 103 -160 193 -280 219 -98 20
-100 18 -41 -47z"/>
<path d="M7718 1296 c-83 -22 -130 -70 -144 -143 -17 -91 27 -152 157 -219 79
-41 139 -90 139 -114 0 -21 -39 -51 -72 -57 -53 -8 -101 4 -132 32 -15 14 -29
25 -32 25 -11 0 -94 -63 -94 -71 0 -21 65 -79 112 -99 100 -43 256 -14 306 57
45 63 48 156 8 218 -21 32 -85 75 -178 119 -60 29 -79 43 -84 62 -16 63 96 95
151 44 l24 -23 45 29 c25 16 46 33 46 37 0 5 -9 22 -21 38 -42 59 -145 88
-231 65z"/>
<path d="M3230 970 l0 -330 65 0 65 0 0 180 c0 102 4 180 9 180 5 0 11 -3 13
-7 2 -5 85 -89 186 -188 l182 -179 0 332 0 332 -65 0 -65 0 -2 -176 -3 -177
-186 182 c-103 99 -190 181 -193 181 -3 0 -6 -148 -6 -330z"/>
<path d="M4710 1163 c-35 -76 -90 -194 -122 -262 -32 -68 -58 -125 -58 -127 0
-2 -13 -32 -30 -66 -16 -34 -30 -63 -30 -65 0 -2 31 -3 68 -3 l68 0 22 45 22
45 130 0 131 0 19 -45 19 -45 66 0 c36 0 65 4 65 9 0 11 -70 166 -182 406 -46
99 -90 195 -97 213 -8 17 -17 32 -20 32 -4 0 -36 -62 -71 -137z m105 -227 c19
-40 35 -79 35 -85 0 -7 -27 -11 -76 -11 -42 0 -74 4 -72 9 10 26 73 160 76
161 2 0 18 -33 37 -74z"/>
<path d="M2300 966 l0 -326 65 0 65 0 0 104 0 103 78 5 c85 5 133 23 180 69
48 47 65 92 60 164 -5 76 -37 131 -101 172 -40 27 -48 28 -194 31 l-153 3 0
-325z m281 184 c28 -15 51 -65 43 -95 -3 -14 -20 -36 -36 -50 -25 -21 -40 -25
-94 -25 l-64 0 0 90 0 90 66 0 c36 0 74 -5 85 -10z"/>
<path d="M2910 965 l0 -325 65 0 65 0 0 325 0 325 -65 0 -65 0 0 -325z"/>
<path d="M3950 965 l0 -325 193 2 192 3 0 60 0 60 -127 3 -128 3 0 69 0 70
110 0 110 0 0 65 0 65 -110 0 -110 0 0 60 0 59 128 3 127 3 3 63 3 62 -196 0
-195 0 0 -325z"/>
<path d="M5240 965 l0 -326 63 3 62 3 3 101 3 101 78 5 c93 5 149 32 197 95
80 105 43 257 -77 317 -50 24 -62 26 -191 26 l-138 0 0 -325z m289 169 c22
-18 31 -35 31 -56 0 -65 -46 -98 -135 -98 l-55 0 0 90 0 90 64 0 c55 0 69 -4
95 -26z"/>
<path d="M5850 965 l0 -326 63 3 62 3 3 101 3 101 77 5 c85 5 139 27 184 75
98 103 66 272 -65 338 -47 23 -61 25 -189 25 l-138 0 0 -325z m291 166 c70
-71 14 -151 -106 -151 l-55 0 0 90 0 90 66 0 c59 0 68 -3 95 -29z"/>
<path d="M6460 965 l0 -325 190 0 190 0 0 65 0 65 -125 0 -125 0 0 260 0 260
-65 0 -65 0 0 -325z"/>
<path d="M7000 965 l0 -325 195 0 195 0 0 65 0 65 -130 0 -130 0 0 70 0 70
110 0 110 0 0 65 0 65 -110 0 -110 0 0 60 0 60 130 0 130 0 0 65 0 65 -195 0
-195 0 0 -325z"/>
<path d="M450 1108 l-65 -21 36 -8 c107 -24 234 -97 275 -159 15 -23 35 -40
45 -40 23 0 23 3 5 39 -23 43 -101 110 -169 142 l-62 31 85 -4 c136 -6 250
-71 301 -170 23 -46 55 -53 44 -10 -15 61 -91 137 -185 184 -56 28 -77 32
-155 35 -71 2 -104 -1 -155 -19z"/>
<path d="M1196 1105 c-98 -41 -186 -122 -215 -198 -9 -24 -8 -27 9 -27 12 0
25 13 35 35 23 48 96 112 163 143 43 20 77 27 142 30 l85 4 -60 -30 c-71 -34
-117 -72 -156 -126 -34 -46 -36 -56 -9 -56 11 0 26 12 34 29 32 62 146 134
257 162 27 7 49 16 49 19 0 17 -113 40 -191 40 -66 -1 -97 -6 -143 -25z"/>
<path d="M1390 681 c0 -11 6 -21 12 -23 23 -8 -51 -139 -113 -199 -203 -200
-527 -175 -694 52 -24 32 -51 81 -61 108 -13 37 -23 51 -37 51 -16 0 -18 -5
-12 -32 12 -58 65 -144 126 -205 240 -243 650 -176 804 131 19 38 35 75 35 82
0 8 9 14 20 14 13 0 20 7 20 20 0 17 -7 20 -50 20 -43 0 -50 -3 -50 -19z"/>
</g>
</svg>
